<svg xmlns="http://www.w3.org/2000/svg" viewBox="0 0 75.8 65.56"><defs><style>.cls-1{fill:#fff;}</style></defs><g id="Layer_2" data-name="Layer 2"><g id="Layer_1-2" data-name="Layer 1"><path class="cls-1" d="M27.36,14.8c0-5.23-4.11-8.65-10.26-8.65H6.68V23.84H17C23.12,23.84,27.36,20.16,27.36,14.8ZM17,22.92H15.19V14.34H25c.56,0,1.06,0,1.42.06v.4C26.44,19.63,22.62,22.92,17,22.92Z"/><path class="cls-1" d="M41.63,54.14c-3.23-2.62-6.77-7.07-7.54-11.29a6.3,6.3,0,0,1,0-2.12,5.87,5.87,0,0,1-.33-2.46,5.46,5.46,0,0,1-.41-1.6,5.64,5.64,0,0,1,.46-3.39,5.55,5.55,0,0,1,.64-2.84,5.41,5.41,0,0,1,.63-1.89A4.87,4.87,0,0,1,36.4,26.2a1.34,1.34,0,0,1,.06-.12,5.16,5.16,0,0,1,.83-1.85,4.64,4.64,0,0,1,1.61-2.06,4.43,4.43,0,0,1,1.7-1.25c0-.06.06-.13.1-.2a5.72,5.72,0,0,1,.58-.87c-.39-3.41-2-6.19-5.14-9.26L29.79,4.47C27.33,2.14,23.45,0,17.23,0H0V46.69l8.52,8.19h7V37.22h4.93l5.82,9.57,10.79,8.09h5.73A6.16,6.16,0,0,1,41.63,54.14ZM26.9,46,16.34,28.71H6.68V46H.92V.92H17.23c8.91,0,16,5.2,16,13.52,0,6-4.21,11.44-10.55,13.51L34,46Z"/><path class="cls-1" d="M47,59.7l-6.33-5.61A22.23,22.23,0,0,1,33,38.3C32.25,25.75,41,15.78,53.52,15c4-.24,8.9.41,12.22,2.24l7.78,6.88.4,6.59-.7.34a17.76,17.76,0,0,0-11.65-3.53c-9.32.57-15.26,7.09-14.72,16.05a13.17,13.17,0,0,0,2.45,7.54,18,18,0,0,0,7.54,1.06,19.76,19.76,0,0,0,10.61-3.77l8,6.76.4,6.62c-2.83,2-7.51,3.43-12.17,3.71C56.57,65.94,51.51,63.5,47,59.7ZM67.37,55l-.32-5.25A21.11,21.11,0,0,1,56.89,53c-9.91.6-17.23-5.68-17.81-15.24-.57-9.41,5.74-16.34,15.5-16.93a19.2,19.2,0,0,1,10.87,2.38l-.32-5.34c-2.83-1.53-7.29-2.3-11.56-2-12,.73-20.46,10.32-19.73,22.4S44.17,59,56,58.23C59.6,58,64.49,57,67.37,55Z"/></g></g></svg>